<svg height='100px' width='100px'  fill="#FFFFFF" xmlns="http://www.w3.org/2000/svg" xmlns:xlink="http://www.w3.org/1999/xlink" version="1.1" x="0px" y="0px" viewBox="0 0 100 100" style="enable-background:new 0 0 100 100;" xml:space="preserve"><path d="M39.5234375,40.074707c-0.5522461,0-1,0.4477539-1,1v3.0458984c0,0.5522461,0.4477539,1,1,1s1-0.4477539,1-1V41.074707  C40.5234375,40.5224609,40.0756836,40.074707,39.5234375,40.074707z"></path><path d="M44.7617188,40.074707c-0.5522461,0-1,0.4477539-1,1v3.0458984c0,0.5522461,0.4477539,1,1,1s1-0.4477539,1-1V41.074707  C45.7617188,40.5224609,45.3139648,40.074707,44.7617188,40.074707z"></path><path d="M50,40.074707c-0.5522461,0-1,0.4477539-1,1v3.0458984c0,0.5522461,0.4477539,1,1,1s1-0.4477539,1-1V41.074707  C51,40.5224609,50.5522461,40.074707,50,40.074707z"></path><path d="M55.2382812,40.074707c-0.5522461,0-1,0.4477539-1,1v3.0458984c0,0.5522461,0.4477539,1,1,1s1-0.4477539,1-1V41.074707  C56.2382812,40.5224609,55.7905273,40.074707,55.2382812,40.074707z"></path><path d="M60.4765625,40.074707c-0.5522461,0-1,0.4477539-1,1v3.0458984c0,0.5522461,0.4477539,1,1,1s1-0.4477539,1-1V41.074707  C61.4765625,40.5224609,61.0288086,40.074707,60.4765625,40.074707z"></path><path d="M11,90h78c0.5522461,0,1-0.4477539,1-1v-5.3476562c0-0.5522461-0.4477539-1-1-1h-1.2216797V60.6665039H89  c0.5522461,0,1-0.4477539,1-1V53.855957c0-0.4350586-0.2807617-0.8198242-0.6953125-0.9526367l-16.519043-5.2875977  c-0.0981445-0.03125-0.2011719-0.0473633-0.3046875-0.0473633h-5.4379883V37.3696289H67.65625c0.5522461,0,1-0.4477539,1-1  v-0.6777344c0-9.1948242-7.480957-16.6757812-16.6762695-16.6757812H51v-0.8969727h8.6547852c0.5522461,0,1-0.4477539,1-1V11.715332  c0-0.5522461-0.4477539-1-1-1h-8.7124634C50.8175659,10.3051147,50.4509277,10.0009766,50,10.0009766c-0.5522461,0-1,0.4477539-1,1  v8.0151367h-0.9799805c-9.1953125,0-16.6762695,7.480957-16.6762695,16.6757812v0.6777344c0,0.5522461,0.4477539,1,1,1h0.6132812  v10.1987305H27.519043c-0.1035156,0-0.206543,0.0161133-0.3046875,0.0473633l-16.519043,5.2875977  C10.2807617,53.0361328,10,53.4208984,10,53.855957v5.8105469c0,0.5522461,0.4477539,1,1,1h1.5283203v21.9858398H11  c-0.5522461,0-1,0.4477539-1,1V89C10,89.5522461,10.4477539,90,11,90z M58.6547852,16.1191406H51V12.715332h7.6547852V16.1191406z   M85.7783203,82.6523438H67.7397461V63h1.5219727c0.5522461,0,1-0.4477539,1-1v-1.3334961h15.5166016V82.6523438z M31.7382812,61  v-2.0234375L50,55.3320312l18.2617188,3.6445312V61H31.7382812z M43.6245117,63v19.6523438h-9.0581055V63H43.6245117z   M45.6245117,63h9.0576172v19.6523438h-9.0576172V63z M56.6821289,63h9.0576172v19.6523438h-9.0576172V63z M48.0200195,21.0161133  h3.9599609c7.9848633,0,14.5009766,6.409668,14.6728516,14.3535156H33.347168  C33.519043,27.4257812,40.0351562,21.0161133,48.0200195,21.0161133z M34.9570312,37.3696289h30.0859375v10.1987305H34.9570312  V37.3696289z M12,54.5859375l15.675293-5.0175781H72.324707L88,54.5859375v4.0805664H70.2617188V58.15625  c0-0.4770508-0.3369141-0.887207-0.8041992-0.9804688l-19.2617188-3.84375c-0.1289062-0.0263672-0.2626953-0.0263672-0.3916016,0  l-19.2617188,3.84375c-0.4672852,0.0932617-0.8041992,0.503418-0.8041992,0.9804688v0.5102539H12V54.5859375z   M14.5283203,60.6665039h15.2099609V62c0,0.5522461,0.4477539,1,1,1h1.828125v19.6523438H14.5283203V60.6665039z M12,84.6523438h76  V88H12V84.6523438z"></path><path d="M25.6665039,62.9165039h-5.0830078c-0.5522461,0-1,0.4477539-1,1V69c0,0.5522461,0.4477539,1,1,1h5.0830078  c0.5522461,0,1-0.4477539,1-1v-5.0834961C26.6665039,63.3642578,26.21875,62.9165039,25.6665039,62.9165039z M24.6665039,68  h-3.0830078v-3.0834961h3.0830078V68z"></path><path d="M25.6665039,72.7841797h-5.0830078c-0.5522461,0-1,0.4477539-1,1v5.0834961c0,0.5522461,0.4477539,1,1,1h5.0830078  c0.5522461,0,1-0.4477539,1-1v-5.0834961C26.6665039,73.2319336,26.21875,72.7841797,25.6665039,72.7841797z M24.6665039,77.8676758  h-3.0830078v-3.0834961h3.0830078V77.8676758z"></path><path d="M74.2172852,70h5.0834961c0.5522461,0,1-0.4477539,1-1v-5.0834961c0-0.5522461-0.4477539-1-1-1h-5.0834961  c-0.5522461,0-1,0.4477539-1,1V69C73.2172852,69.5522461,73.6650391,70,74.2172852,70z M75.2172852,64.9165039h3.0834961V68  h-3.0834961V64.9165039z"></path><path d="M74.2172852,79.8676758h5.0834961c0.5522461,0,1-0.4477539,1-1v-5.0834961c0-0.5522461-0.4477539-1-1-1h-5.0834961  c-0.5522461,0-1,0.4477539-1,1v5.0834961C73.2172852,79.4199219,73.6650391,79.8676758,74.2172852,79.8676758z   M75.2172852,74.7841797h3.0834961v3.0834961h-3.0834961V74.7841797z"></path></svg>